<?xml version="1.0" encoding="utf-8"?>
<!-- Generator: Adobe Illustrator 21.0.0, SVG Export Plug-In . SVG Version: 6.00 Build 0)  -->
<svg version="1.1" id="Layer_1" xmlns="http://www.w3.org/2000/svg" xmlns:xlink="http://www.w3.org/1999/xlink" x="0px" y="0px"
	 viewBox="0 0 512 512" style="enable-background:new 0 0 512 512;" xml:space="preserve">
<style type="text/css">
	.st0{display:none;fill:#FFFFFF;}
</style>
<g>
	<circle class="st0" cx="259.6" cy="255.4" r="151.8"/>
	<path d="M411.6,255.4c0,19.9-3.8,39.8-11.3,58.3c-7.4,18.5-18.5,35.6-32.5,49.9c-14,14.3-30.9,25.9-49.5,33.7
		c-18.5,7.8-38.7,11.7-58.8,11.6c-20.1-0.2-40.1-4.3-58.5-12.2c-9.2-3.9-18-8.8-26.3-14.4c-8.3-5.6-16-12-23-19.1
		c-7-7.1-13.3-14.9-18.9-23.1c-5.6-8.3-10.3-17.1-14.2-26.3c-0.9-2.3-1.9-4.6-2.7-7c-0.8-2.4-1.7-4.7-2.4-7.1
		c-0.7-2.4-1.5-4.8-2-7.2c-0.6-2.4-1.2-4.8-1.7-7.3c-2-9.8-3.1-19.8-3.2-29.8c-0.2-20,3.5-40.1,11.2-58.7
		c7.6-18.6,18.9-35.7,33.1-50c14.2-14.3,31.2-25.7,49.8-33.5c18.6-7.8,38.7-11.7,58.9-11.7c20.1,0.1,40.3,4,58.8,11.9
		c18.5,7.8,35.5,19.3,49.4,33.7c14,14.4,25.1,31.4,32.5,50C407.8,215.6,411.7,235.5,411.6,255.4z M411.2,255.4c0-9.9-1-19.8-3-29.6
		c-2-9.7-4.9-19.2-8.9-28.3c-7.8-18.2-19.2-34.8-33.3-48.5c-14.1-13.7-30.8-24.7-49-32.1c-9.1-3.7-18.5-6.5-28.1-8.4
		c-9.6-1.9-19.4-2.8-29.2-2.8c-9.8,0-19.6,1-29.2,2.9c-9.6,1.9-19,4.8-28.1,8.5c-18.1,7.4-34.8,18.5-48.7,32.3
		c-13.9,13.8-25.2,30.4-32.8,48.5c-3.8,9.1-6.7,18.5-8.8,28.1c-2,9.6-3.1,19.5-3.2,29.4c-0.1,19.7,3.5,39.5,11.1,57.8
		c3.8,9.1,8.4,17.9,13.9,26.2c5.5,8.3,11.9,15.9,18.9,22.9c7,7,14.7,13.2,23,18.7c8.3,5.4,17.1,10,26.2,13.7
		c18.3,7.4,38,11.1,57.7,10.9c9.8-0.1,19.6-1.1,29.3-3c9.6-1.9,19.1-4.8,28.1-8.5c2.3-0.9,4.5-2,6.7-3c2.2-1,4.4-2.2,6.6-3.3
		c2.2-1.1,4.3-2.4,6.4-3.6c2.1-1.2,4.2-2.6,6.3-3.9c8.2-5.4,15.9-11.6,23-18.4c14.1-13.8,25.5-30.3,33.3-48.5
		c3.9-9.1,6.8-18.6,8.8-28.3C410.2,275.2,411.2,265.3,411.2,255.4z"/>
</g>
</svg>
